<?xml version="1.0" encoding="UTF-8"?>
<svg id="Calque_1" data-name="Calque 1" xmlns="http://www.w3.org/2000/svg" version="1.1" viewBox="0 0 112.5 112">
  <defs>
    <style>
      .cls-1 {
        fill: #000;
      }

      .cls-1, .cls-2 {
        stroke-width: 0px;
      }

      .cls-2 {
        fill: #fff;
      }
    </style>
  </defs>
  <path class="cls-1" d="M42.2,112H.5V0h41.7v75.7h59.3v21.7h-59.3v14.5Z"/>
  <path class="cls-2" d="M42.2,112v-14.5h59.3v-21.7h-59.3V0h21.5c0,.3,0,.7-.1,1-.8,4.5-.8,9.1.2,13.6,3.4,15.2,16.1,26.2,31.8,27.3,5.9.4,11.6-.7,16.9-3.3v73.5c-23.4,0-46.9,0-70.3,0Z"/>
  <path class="cls-1" d="M112.5,38.5c-5.3,2.6-11,3.7-16.9,3.3-15.6-1-28.4-12-31.8-27.3-1-4.5-1.1-9-.2-13.6,0-.3,0-.7.1-1h48.8v38.5Z"/>
  <rect class="cls-1" x="141" y="95.2" width="311.7" height="16.8"/>
</svg>