<?xml version="1.0" encoding="utf-8"?>
<!-- Generator: Adobe Illustrator 25.1.0, SVG Export Plug-In . SVG Version: 6.00 Build 0)  -->
<svg version="1.0" id="Calque_1" xmlns="http://www.w3.org/2000/svg" xmlns:xlink="http://www.w3.org/1999/xlink" x="0px" y="0px"
	 viewBox="0 0 531 117" style="enable-background:new 0 0 531 117;" xml:space="preserve">
<style type="text/css">
	.st0{fill:#F4C792;}
	.st1{fill:#DB4260;}
</style>
<g>
	<path class="st0" d="M139.74,31.48h0.3c1.31,0,2.36,0.34,3.14,1.02c0.78,0.68,1.17,1.6,1.17,2.76c0,1.11-0.37,2.02-1.1,2.73
		c-0.73,0.71-1.65,1.06-2.76,1.06c-1.72,0-2.88,0.3-3.48,0.91c-0.61,0.61-0.91,1.77-0.91,3.48v2.57c0,0.3,0.15,0.45,0.45,0.45h4.17
		c1.06,0,1.91,0.3,2.54,0.91c0.63,0.61,0.95,1.41,0.95,2.42c0,1.01-0.32,1.81-0.95,2.39c-0.63,0.58-1.48,0.87-2.54,0.87h-4.17
		c-0.3,0-0.45,0.15-0.45,0.45v25.37c0,1.36-0.39,2.45-1.17,3.26c-0.78,0.81-1.81,1.21-3.07,1.21c-1.26,0-2.28-0.4-3.07-1.21
		c-0.78-0.81-1.17-1.89-1.17-3.26V53.51c0-0.3-0.18-0.45-0.53-0.45h-1.21c-1.06,0-1.91-0.29-2.54-0.87
		c-0.63-0.58-0.95-1.37-0.95-2.39c0-1.01,0.31-1.82,0.95-2.42c0.63-0.61,1.48-0.91,2.54-0.91h1.21c0.35,0,0.53-0.15,0.53-0.45v-2.42
		c0-4.34,0.96-7.45,2.88-9.32C132.42,32.41,135.5,31.48,139.74,31.48z M165.76,83.43h-0.61c-3.59,0-6.15-0.87-7.69-2.61
		c-1.54-1.74-2.31-4.43-2.31-8.07V35.57c0-1.36,0.39-2.45,1.17-3.26c0.78-0.81,1.8-1.21,3.07-1.21c1.26,0,2.28,0.4,3.07,1.21
		c0.78,0.81,1.17,1.89,1.17,3.26v36.5c0,1.26,0.23,2.17,0.68,2.73c0.45,0.56,1.21,0.91,2.27,1.06c2.37,0.3,3.56,1.54,3.56,3.71
		c0,1.16-0.37,2.1-1.1,2.8C168.32,83.08,167.23,83.43,165.76,83.43z"/>
	<path class="st0" d="M195.83,83.81c-3.89,0-7.16-0.88-9.81-2.65c-2.65-1.77-4.48-4.27-5.49-7.5c-0.86-2.68-1.29-5.65-1.29-8.94
		c0-3.48,0.4-6.49,1.21-9.01c1.01-3.18,2.84-5.65,5.49-7.42c2.65-1.77,5.79-2.65,9.43-2.65c3.74,0,6.92,0.9,9.54,2.69
		c2.62,1.79,4.44,4.25,5.45,7.38c0.81,2.57,1.21,5.5,1.21,8.79c0,0.91-0.26,1.63-0.8,2.16c-0.53,0.53-1.25,0.8-2.16,0.8h-20.37
		c-0.3,0-0.45,0.15-0.45,0.45c0,0.91,0.18,1.84,0.53,2.8c1.26,3.69,4.01,5.53,8.26,5.53c2.52,0,5.02-0.83,7.5-2.5
		c1.16-0.81,2.2-1.21,3.11-1.21c1.06,0,1.92,0.33,2.57,0.98c0.66,0.66,0.98,1.52,0.98,2.57c0,1.31-0.58,2.42-1.74,3.33
		C205.42,82.35,201.03,83.81,195.83,83.81z M203.02,60.63c0-1.16-0.15-2.2-0.45-3.1c-0.51-1.46-1.39-2.61-2.65-3.45
		c-1.26-0.83-2.75-1.25-4.47-1.25c-3.74,0-6.13,1.57-7.19,4.7c-0.3,0.91-0.45,1.94-0.45,3.1c0,0.3,0.15,0.45,0.45,0.45h14.31
		C202.87,61.09,203.02,60.94,203.02,60.63z"/>
	<path class="st0" d="M254.81,83.36c-2.37,0-3.79-1.26-4.24-3.79h-0.08c-2.02,2.83-5.2,4.24-9.54,4.24c-3.84,0-6.88-1.26-9.13-3.79
		c-2.25-2.52-3.37-5.78-3.37-9.77V50.56c0-1.36,0.39-2.45,1.17-3.26c0.78-0.81,1.8-1.21,3.07-1.21c1.26,0,2.28,0.4,3.07,1.21
		c0.78,0.81,1.17,1.89,1.17,3.26v17.72c0,2.42,0.57,4.36,1.7,5.79s2.81,2.16,5.04,2.16c2.17,0,3.86-0.72,5.07-2.16
		c1.21-1.44,1.82-3.37,1.82-5.79V50.56c0-1.36,0.39-2.45,1.17-3.26c0.78-0.81,1.8-1.21,3.07-1.21c1.26,0,2.28,0.4,3.07,1.21
		c0.78,0.81,1.17,1.89,1.17,3.26v28.32c0,1.36-0.39,2.45-1.17,3.26C257.09,82.95,256.07,83.36,254.81,83.36z"/>
	<path class="st0" d="M286.65,50.56v0.15h0.08c0.86-1.46,2.09-2.68,3.71-3.63c1.62-0.96,3.46-1.44,5.53-1.44
		c1.67,0,3.21,0.33,4.62,0.99c1.51,0.81,2.27,1.97,2.27,3.48c0,1.26-0.38,2.3-1.14,3.1c-0.76,0.81-1.77,1.21-3.03,1.21
		c-0.56,0-1.21-0.13-1.97-0.38c-1.41-0.4-2.55-0.61-3.41-0.61c-4.44,0-6.66,3.08-6.66,9.24v16.21c0,1.36-0.39,2.45-1.17,3.26
		c-0.78,0.81-1.81,1.21-3.07,1.21c-1.26,0-2.29-0.4-3.07-1.21c-0.78-0.81-1.17-1.89-1.17-3.26V50.56c0-1.36,0.39-2.45,1.17-3.26
		c0.78-0.81,1.8-1.21,3.07-1.21c1.26,0,2.28,0.4,3.07,1.21C286.26,48.11,286.65,49.2,286.65,50.56z"/>
	<path class="st0" d="M330.68,83.81c-5.2,0-9.64-1.24-13.33-3.71c-1.36-0.86-2.04-1.99-2.04-3.41c0-1.06,0.37-1.97,1.1-2.73
		c0.73-0.76,1.65-1.14,2.76-1.14c0.81,0,1.69,0.28,2.65,0.83c3.18,1.97,6.29,2.95,9.32,2.95c2.07,0,3.71-0.38,4.92-1.14
		c1.21-0.76,1.82-1.82,1.82-3.18c0-1.21-0.44-2.13-1.33-2.76c-0.88-0.63-2.46-1.05-4.73-1.25l-3.94-0.38
		c-7.47-0.81-11.21-4.39-11.21-10.75c0-3.53,1.24-6.34,3.71-8.41c2.47-2.07,5.96-3.11,10.45-3.11c3.99,0,7.67,0.91,11.06,2.73
		c1.72,0.96,2.57,2.12,2.57,3.48c0,1.06-0.33,1.94-0.98,2.65c-0.66,0.71-1.51,1.06-2.57,1.06c-0.71,0-1.59-0.28-2.65-0.83
		c-2.73-1.31-5.35-1.97-7.88-1.97c-1.82,0-3.19,0.35-4.13,1.06c-0.94,0.71-1.4,1.62-1.4,2.73c0,1.11,0.44,1.98,1.33,2.61
		c0.88,0.63,2.44,1.05,4.66,1.25l3.94,0.38c7.52,0.76,11.28,4.34,11.28,10.75c0,3.74-1.35,6.72-4.05,8.94
		C339.3,82.7,335.53,83.81,330.68,83.81z"/>
	<path class="st0" d="M388.46,78.89V50.56c0-1.36,0.39-2.45,1.17-3.26c0.78-0.81,1.8-1.21,3.07-1.21c2.37,0,3.79,1.26,4.24,3.79
		h0.08c1.97-2.83,5.17-4.24,9.62-4.24c4.39,0,7.72,1.62,10,4.85h0.08c2.98-3.23,6.87-4.85,11.66-4.85c4.14,0,7.38,1.26,9.73,3.79
		c2.35,2.53,3.52,5.78,3.52,9.77v19.69c0,1.36-0.39,2.45-1.17,3.26c-0.78,0.81-1.81,1.21-3.07,1.21c-1.26,0-2.29-0.4-3.07-1.21
		c-0.78-0.81-1.17-1.89-1.17-3.26V61.16c0-2.42-0.59-4.36-1.78-5.79c-1.19-1.44-2.89-2.16-5.11-2.16c-2.17,0-3.88,0.73-5.11,2.2
		c-1.24,1.46-1.86,3.38-1.86,5.76v17.72c0,1.36-0.39,2.45-1.17,3.26c-0.78,0.81-1.81,1.21-3.07,1.21c-1.26,0-2.29-0.4-3.07-1.21
		c-0.78-0.81-1.17-1.89-1.17-3.26V61.16c0-2.42-0.59-4.36-1.78-5.79s-2.89-2.16-5.11-2.16c-2.17,0-3.88,0.73-5.11,2.2
		c-1.24,1.46-1.86,3.38-1.86,5.76v17.72c0,1.36-0.39,2.45-1.17,3.26c-0.78,0.81-1.81,1.21-3.07,1.21c-1.26,0-2.29-0.4-3.07-1.21
		C388.85,81.34,388.46,80.25,388.46,78.89z"/>
	<path class="st0" d="M460.36,53.06h-1.06c-1.06,0-1.91-0.29-2.54-0.87c-0.63-0.58-0.95-1.37-0.95-2.39c0-1.01,0.31-1.82,0.95-2.42
		c0.63-0.61,1.48-0.91,2.54-0.91h1.06c0.35,0,0.53-0.15,0.53-0.45v-6.66c0-1.36,0.4-2.45,1.21-3.26c0.81-0.81,1.84-1.21,3.11-1.21
		c1.21,0,2.21,0.4,2.99,1.21c0.78,0.81,1.17,1.89,1.17,3.26v6.66c0,0.3,0.15,0.45,0.45,0.45h3.86c1.06,0,1.9,0.3,2.54,0.91
		c0.63,0.61,0.95,1.41,0.95,2.42c0,1.01-0.32,1.81-0.95,2.39c-0.63,0.58-1.48,0.87-2.54,0.87h-3.86c-0.3,0-0.45,0.15-0.45,0.45
		v18.18c0,1.47,0.27,2.49,0.8,3.07c0.53,0.58,1.58,0.95,3.14,1.1c1.26,0.1,2.22,0.51,2.88,1.21c0.66,0.71,0.99,1.57,0.99,2.58
		c0,1.11-0.39,2.02-1.17,2.73c-0.78,0.71-1.93,1.06-3.45,1.06h-0.68c-3.94,0-6.75-0.91-8.44-2.73c-1.69-1.82-2.54-4.74-2.54-8.79
		v-18.4C460.89,53.21,460.72,53.06,460.36,53.06z"/>
	<path class="st0" d="M502.9,83.43h-0.61c-3.59,0-6.15-0.87-7.69-2.61c-1.54-1.74-2.31-4.43-2.31-8.07V35.57
		c0-1.36,0.39-2.45,1.17-3.26c0.78-0.81,1.8-1.21,3.07-1.21c1.26,0,2.28,0.4,3.07,1.21c0.78,0.81,1.17,1.89,1.17,3.26v36.5
		c0,1.26,0.23,2.17,0.68,2.73c0.45,0.56,1.21,0.91,2.27,1.06c2.37,0.3,3.56,1.54,3.56,3.71c0,1.16-0.37,2.1-1.1,2.8
		C505.46,83.08,504.36,83.43,502.9,83.43z"/>
</g>
<path class="st1" d="M64.57,55.6c0,0-23.73-3.3-29.16-10.38s-7.43-13.22-0.84-18.27c1.99-1.53,4.25-2.48,6.57-2.88
	c-0.05,0.1-0.09,0.2-0.14,0.3c0.47-0.1,1.48-0.31,2.84-0.52c-0.9-0.01-1.81,0.06-2.71,0.22c0.99-2.13,2.49-4.06,4.49-5.59
	c6.58-5.04,10.2-3.85,17.41,5.58S64.57,55.6,64.57,55.6z"/>
<path class="st1" d="M64.29,55.53c0,0-3.3,23.73-10.38,29.16c-7.08,5.42-13.22,7.43-18.27,0.84c-1.53-1.99-2.48-4.25-2.88-6.57
	c0.1,0.05,0.2,0.09,0.3,0.14c-0.1-0.47-0.31-1.48-0.52-2.84c-0.01,0.9,0.06,1.81,0.22,2.71c-2.13-0.99-4.06-2.49-5.59-4.49
	c-5.04-6.58-3.85-10.2,5.58-17.41S64.29,55.53,64.29,55.53z"/>
<path class="st1" d="M64.22,55.81c0,0,23.73,3.3,29.16,10.38s7.43,13.22,0.84,18.27c-1.99,1.53-4.25,2.48-6.57,2.88
	c0.05-0.1,0.09-0.2,0.14-0.3c-0.47,0.1-1.48,0.31-2.84,0.52c0.9,0.01,1.81-0.06,2.71-0.22c-0.99,2.13-2.49,4.06-4.49,5.59
	c-6.58,5.04-10.2,3.85-17.41-5.58C58.53,77.92,64.22,55.81,64.22,55.81z"/>
<path class="st1" d="M64.5,55.88c0,0,3.3-23.73,10.38-29.16s13.22-7.43,18.27-0.84c1.53,1.99,2.48,4.25,2.88,6.57
	c-0.1-0.05-0.2-0.09-0.3-0.14c0.1,0.47,0.31,1.48,0.52,2.84c0.01-0.9-0.06-1.81-0.22-2.71c2.13,0.99,4.06,2.49,5.59,4.49
	c5.04,6.58,3.85,10.2-5.58,17.41S64.5,55.88,64.5,55.88z"/>
</svg>
