<?xml version="1.0" encoding="utf-8"?>
<!-- Generator: Adobe Illustrator 27.9.1, SVG Export Plug-In . SVG Version: 6.00 Build 0)  -->
<svg version="1.1" id="Calque_1" xmlns="http://www.w3.org/2000/svg" xmlns:xlink="http://www.w3.org/1999/xlink" x="0px" y="0px"
	 viewBox="0 0 338.55 157.53" style="enable-background:new 0 0 338.55 157.53;" xml:space="preserve">
<style type="text/css">
	.st0{fill:#DCA9C0;}
	.st1{fill:#6E815E;}
</style>
<g>
	<path class="st0" d="M38.45,60.61c-7.5-1.84-11.79-8.78-11.79-15.81c0-0.79,0.07-1.57,0.18-2.36c0.79-5.66,5.12-7.88,5.12-12.44
		c0-0.92-0.18-1.93-0.61-3.08c1.06,0.9,6.63,2.2,11.19,2.2c0.7,0,1.35-0.02,1.98-0.09c0,0,3.55-0.25,5.37-2.13
		c0.63,0.92,0.9,1.95,0.9,3.01c0,3.28-2.85,6.58-7.39,6.58c-1.68,0-3.57-0.45-5.64-1.5c-1.37-0.72-2.63-1.24-3.64-1.24
		c-1.64,0-2.74,1.55-2.74,4.9c0,2.9,0.99,6.56,2.92,9.5c-0.34-1.01-0.52-2.02-0.52-2.99c0-2.7,1.44-4.87,4.87-4.87
		c0.38,0,0.79,0.02,1.21,0.07c1.8,0.25,3.66,1.01,5.41,1.01c1.3,0,2.58-0.43,3.73-1.82c0.29,1.15,0.45,2.11,0.45,2.94
		c0,2.65-1.44,3.84-3.53,3.84c-1.93,0-4.42-1.03-6.85-2.88c-1.03-0.79-1.84-1.1-2.47-1.1c-1.06,0-1.57,0.97-1.57,2.34
		c0,1.06,0.29,2.34,0.88,3.59c1.62,3.59,4.18,5.1,7.17,5.1c1.95,0,4.11-0.67,6.29-1.84c0.18,0.79,0.27,1.5,0.27,2.2
		c0,4.69-4.07,7.21-8.45,7.21C40.3,60.95,39.35,60.83,38.45,60.61z"/>
	<path class="st0" d="M55.87,40.66c0-5.84-0.45-10.94-1.66-12.08l1.39,0.02c3.35,0,6.58-0.45,9.93-0.54l0.67-0.02
		c9.01,0,13.3,7.97,13.3,16.04c0,3.37-0.76,6.76-2.22,9.59c-1.8,3.48-6.13,7.05-9.95,7.05c-1.5,0-2.92-0.56-4.09-1.89
		c0,0.88,0.18,1.59,0.7,2.04c-1.59-0.16-3.14-0.25-4.69-0.25c-1.75,0-3.46,0.11-5.14,0.27C54.95,59.19,55.87,49.15,55.87,40.66z
		 M67.95,57.8c3.08-2.92,4.45-8.13,4.45-13.36c0-6.96-2.47-13.95-6.69-15.36c-0.18-0.07-0.38-0.09-0.56-0.09
		c-1.42,0-2.45,2-2.45,7.32L63.01,53c0.07,4.22,1.19,5.97,2.65,5.97C66.36,58.97,67.17,58.54,67.95,57.8z"/>
	<path class="st0" d="M95.28,60.61c-7.5-1.84-11.79-8.78-11.79-15.81c0-0.79,0.07-1.57,0.18-2.36c0.79-5.66,5.12-7.88,5.12-12.44
		c0-0.92-0.18-1.93-0.61-3.08c1.06,0.9,6.63,2.2,11.19,2.2c0.7,0,1.35-0.02,1.98-0.09c0,0,3.55-0.25,5.37-2.13
		c0.63,0.92,0.9,1.95,0.9,3.01c0,3.28-2.85,6.58-7.39,6.58c-1.68,0-3.57-0.45-5.64-1.5c-1.37-0.72-2.63-1.24-3.64-1.24
		c-1.64,0-2.74,1.55-2.74,4.9c0,2.9,0.99,6.56,2.92,9.5c-0.34-1.01-0.52-2.02-0.52-2.99c0-2.7,1.44-4.87,4.87-4.87
		c0.38,0,0.79,0.02,1.21,0.07c1.8,0.25,3.66,1.01,5.41,1.01c1.3,0,2.58-0.43,3.73-1.82c0.29,1.15,0.45,2.11,0.45,2.94
		c0,2.65-1.44,3.84-3.53,3.84c-1.93,0-4.42-1.03-6.85-2.88c-1.03-0.79-1.84-1.1-2.47-1.1c-1.06,0-1.57,0.97-1.57,2.34
		c0,1.06,0.29,2.34,0.88,3.59c1.62,3.59,4.18,5.1,7.17,5.1c1.95,0,4.11-0.67,6.29-1.84c0.18,0.79,0.27,1.5,0.27,2.2
		c0,4.69-4.07,7.21-8.45,7.21C97.12,60.95,96.17,60.83,95.28,60.61z"/>
	<path class="st0" d="M107.59,62.16c2.92-1.37,3.64-6.13,3.64-11.32c0-5.17-0.72-10.76-0.72-13.79c0-6.85,2.43-9.55,5.32-9.55
		c2.45,0,5.21,1.95,7.1,5.03c2.67,4.31,4.31,11.77,4.31,17.61c0,2.22-0.4,4.02-0.4,5.48c0,3.01,1.35,4.6,2.74,4.6
		c1.48,0,3.01-1.82,3.01-5.71c0-4.54-2.02-9.95-4.69-15.18c-1.03-2.07-1.48-3.86-1.48-5.39c0-4.22,3.35-6.42,6.69-6.42
		c1.62,0,3.21,0.49,4.45,1.53c-2.81,1.21-3.53,5.68-3.53,10.56c0,4.74,0.67,9.84,0.67,12.74c0,6.83-2.43,9.52-5.3,9.52
		c-2.47,0-5.23-1.95-7.14-5.01c-2.67-4.31-4.29-11.81-4.29-17.68c0-2.2,0.4-3.98,0.4-5.41c0-3.01-1.35-4.63-2.74-4.63
		c-1.48,0-3.03,1.84-3.03,5.73c0,0.74,0.07,1.59,0.2,2.49c0.61,4.45,2.7,9.48,4.56,13.61c1.01,2.2,1.44,4.13,1.44,5.77
		c0,4.65-3.39,7.08-6.76,7.08C110.42,63.82,108.83,63.28,107.59,62.16z"/>
</g>
<g>
	<path class="st1" d="M51.58,124.47l0.67-2.43c1.66-4.55,2.61-12.8,2.64-21.3v-0.04c0.04,0,0.04-0.53,0.04-2.96
		c0-5.01-1.16-18.05-2.79-24.61c6.84,0,15.69,2.33,23.52,2.33c5.22,0,9.98-1.02,13.44-4.41c0.92,1.38,1.3,2.93,1.3,4.48
		c0,5.22-4.73,10.58-12.06,10.58h-0.78c-5.92-0.28-10.3-8.6-12.31-8.6c-0.81,0-1.2,1.3-1.2,4.87v3.95c0,2.96,0,6.7,0.11,10.61
		c1.3-2.08,4.3-2.61,6.49-2.61c3.46,0,7.09,1.69,10.51,1.69c2.15,0,4.23-0.67,6.1-2.86c0.11,0.95,0.14,1.83,0.14,2.64
		c0,5.57-2.22,8.04-5.75,8.04c-2.89,0-6.63-1.66-10.68-4.58c-1.62-1.16-3.07-1.97-4.2-1.97c-1.27,0-2.15,0.95-2.5,3.39
		c0.35,9.94,1.23,20.42,3.84,23.8H51.58z"/>
	<path class="st1" d="M101.49,124.05c-1.94,0-3.95,0.14-5.89,0.46c2.57-3.39,3.88-14.56,3.88-25.74c0-11.18-1.3-22.36-3.88-25.78
		h17.14c-2.68,3.53-4.55,15.55-4.55,27.26c0,1.34,0.04,2.72,0.11,4.06c0.56,14.85,7.16,19.99,12.59,19.99
		c3.88,0,7.16-2.64,7.16-6.28c0-2.33-1.38-5.08-4.83-7.76c-2.33-1.83-4.83-3.1-7.37-5.08c-2.57-2.05-3.77-4.76-3.77-7.76
		c0-11.28,16.71-26.66,36.57-26.66h0.14c0.63,0,1.23,0,1.83,0.04c15.09,0.74,28.03,10.97,28.03,28.67
		c0,16.71-12.13,25.07-24.26,25.07c-12.13,0-24.26-8.36-24.26-25.07c0-7.65,3.07-16.26,8.96-19.47c2.12-1.13,4.16-1.62,6.07-1.62
		c6.88,0,12.09,6.38,12.09,12.38c0,4.58-3,8.96-10.54,10.19c0.25-0.92,0.39-1.94,0.39-3c0-6.59-4.58-14.85-7.05-14.85
		c-0.92,0-1.55,1.13-1.55,3.95c0,1.55,0.18,3.67,0.63,6.35c2.01,11.78,9.73,26.87,20.35,27.79c0.32,0.04,0.6,0.04,0.92,0.04
		c5.43,0,9.73-4.41,9.73-12.77c0-3.07-0.56-6.7-1.9-10.83c-3.1-9.7-9.63-17.53-17.77-21.05c-3-1.3-6.14-1.9-9.17-1.9
		c-10.4,0-19.78,7.19-19.78,18.48c0,2.64,0.53,5.54,1.66,8.57c3.03,8.22,10.33,14.85,10.33,19.5c0,1.34-0.63,2.54-2.15,3.56
		c-1.83,1.2-4.2,1.62-6.88,1.62C118.17,126.41,109.92,124.05,101.49,124.05z"/>
	<path class="st1" d="M219.49,133.64c-11.42-1.83-17.95-12.13-17.95-23.2c0-1.23,0.07-2.5,0.25-3.74l0.04-0.18
		c-3,3.98-5.11,8.36-5.11,13.75c0,1.38,0.14,2.79,0.42,4.27h-14.71c2.01-3.28,2.82-12.66,2.82-22.6c0-11.85-1.13-24.54-2.54-28.67
		c1.8,0.18,3.56,0.25,5.29,0.25c5.33,0,10.3-0.63,15.48-0.63c6.1,0.04,15.76,2.93,15.76,9.73c0,1.73-0.6,3.7-2.04,5.92
		c-3.31,5.18-7.93,9.45-11.95,13.86c0.92,8.57,7.76,19.32,18.55,19.32c1.23,0,2.5-0.14,3.81-0.42c4.76-1.06,6.42-4.13,6.42-7.76
		c0-4.65-2.71-10.3-5.15-14.14c0.67,2.08,0.99,4.09,0.99,5.92c0,6.38-3.7,11.07-9.03,11.07c-3.42,0-7.48-1.9-11.64-6.56
		c0.95,0.39,1.8,0.53,2.57,0.53c9.87,0,8.15-27.86,20.42-32.97c-0.81-1.97-1.9-3.46-3.24-4.34c9.2,0,14.14,0.81,16.54,5.85
		c3.7,7.9,4.16,31.14,9.73,45.63h-5.92c-14.56,0-11.64-31.21-16.4-45.38c-4.55,4.02-6.1,7.26-6.1,10.19c0,4.69,4.02,8.6,6.42,13.65
		c2.26,4.76,3.31,9.8,3.31,14.35c0,4.44-1.02,8.39-3.07,11.04c-2.68,3.53-6.84,5.47-11.32,5.47
		C221.26,133.85,220.37,133.78,219.49,133.64z M206.94,82.01v-0.53c0-5.01-1.52-7.16-3.42-7.16c-2.19,0-4.9,2.82-6.38,7.23
		c-1.59,4.65-2.05,11.25-2.05,17.98c0,5.15,0.28,10.4,0.56,14.92C198.05,100.03,206.66,99.82,206.94,82.01z"/>
	<path class="st1" d="M266.3,124.01c-1.8,0-3.6,0.11-5.36,0.35c1.48-2.93,2.64-17.56,2.64-30.57c0-9.45-0.6-18.05-2.12-20.73h17.42
		c-4.69,5.36-6.7,14.85-6.7,24.08c0,9.59,2.19,18.97,5.85,23.27c2.33,2.72,5.11,3.84,7.62,3.84c3.88,0,7.12-2.64,7.12-6.28
		c0-2.33-1.34-5.08-4.8-7.76c-2.33-1.83-4.8-3.1-7.37-5.08c-3.35-2.68-4.9-5.78-4.9-8.6c0-4.48,3.88-8.18,10.54-8.18
		c1.73,0,3.67,0.25,5.78,0.81c-2.43,3.07-3.35,5.99-3.35,8.78c0,9.13,10.23,16.57,10.23,22.32c0,1.62-0.81,3.1-2.82,4.44
		c-1.87,1.2-4.23,1.66-6.91,1.66C282.91,126.38,274.69,124.01,266.3,124.01z"/>
</g>
</svg>
