<?xml version="1.0" encoding="utf-8"?>
<!-- Generator: Adobe Illustrator 27.9.1, SVG Export Plug-In . SVG Version: 6.00 Build 0)  -->
<svg version="1.1" id="Calque_1" xmlns="http://www.w3.org/2000/svg" xmlns:xlink="http://www.w3.org/1999/xlink" x="0px" y="0px"
	 viewBox="0 0 219.9 90.5" style="enable-background:new 0 0 219.9 90.5;" xml:space="preserve">
<style type="text/css">
	.st0{fill:#DCA9C0;}
	.st1{fill:#6E815E;}
	.st2{font-family:'Lostar';}
	.st3{font-size:43.8173px;}
</style>
<g>
	<path class="st0" d="M7.5,60l0.6-2.2c1.5-4.1,2.4-11.6,2.4-19.2l0,0c0,0,0-0.5,0-2.7c0-4.5-1.1-16.3-2.5-22.2
		c6.2,0,14.2,2.1,21.2,2.1c4.7,0,9-0.9,12.1-4c0.8,1.2,1.2,2.6,1.2,4c0,4.7-4.3,9.6-10.9,9.6h-0.7c-5.3-0.3-9.3-7.8-11.1-7.8
		c-0.7,0-1.1,1.2-1.1,4.4v3.6c0,2.7,0,6.1,0.1,9.6c1.2-1.9,3.9-2.4,5.9-2.4c3.1,0,6.4,1.5,9.5,1.5c1.9,0,3.8-0.6,5.5-2.6
		c0.1,0.9,0.1,1.7,0.1,2.4c0,5-2,7.3-5.2,7.3c-2.6,0-6-1.5-9.6-4.1c-1.5-1.1-2.8-1.8-3.8-1.8c-1.1,0-1.9,0.9-2.3,3.1
		c0.3,9,1.1,18.4,3.5,21.5L7.5,60L7.5,60z"/>
	<path class="st0" d="M106.9,46.7c0.3,1.1,0.4,2.1,0.4,3.1c0,6.7-5.8,10.2-12,10.2c-1.3,0-2.6-0.2-3.9-0.5
		C80.8,57,74.8,47.1,74.8,37.2c0-1.1,0.1-2.2,0.2-3.3c1.1-8,7.3-11.2,7.3-17.6c0-0.5-0.6-0.6-1.3-0.7c-1.2,0.3-2.7,0.8-4.5,1.5
		c-2.4,0.9-4.5,2.8-6.3,4.7c-3.7,4.1-3.3,10-3.3,12.2c0,8.2,10.7,17,10.7,22.1c0,1.5,0,3-1.8,4.2c-1.7,1.1-3.8,1.5-6.2,1.5
		c-5.7,0-13.1-2.1-20.7-2.1c-1.6,0-3.3,0.1-4.8,0.3c1.3-2.6,2.4-15.9,2.4-27.6c0-8.5-0.5-16.3-1.9-18.7h15.7c-4.2,4.8-6,13.4-6,21.7
		c0,8.7,2,17.1,5.3,21c2.1,2.5,4.6,3.5,6.9,3.5c3.5,0,6.4-2.4,6.4-5.7c0-2.1-1.2-4.6-4.3-7c-2.1-1.7-4.3-2.8-6.7-4.6
		c-3-2.4-3.6-4.7-3.6-7.2c0-1.5,1.5-6.1,3.8-9.3c3.9-5.3,11.7-10.4,15.3-11.5c0.1,0,0.2-0.1,0.4-0.1c5.5-1.3,13.3,0.5,19.7,0.5
		c1,0,1.9,0,2.8-0.1c0,0,5-0.3,7.6-3c0.9,1.3,1.3,2.8,1.3,4.3c0,4.7-4,9.3-10.5,9.3c-2.4,0-5.1-0.6-8-2.1c-1.9-1-3.7-1.8-5.2-1.8
		c-2.3,0-3.9,2.2-3.9,6.9c0,4.1,1.4,9.3,4.1,13.5c-0.5-1.4-0.7-2.9-0.7-4.2c0-3.8,2-6.9,6.9-6.9c0.5,0,1.1,0,1.7,0.1
		c2.6,0.4,5.2,1.4,7.7,1.4c1.8,0,3.7-0.6,5.3-2.6c0.4,1.6,0.6,3,0.6,4.2c0,3.8-2,5.4-5,5.4c-2.7,0-6.3-1.5-9.7-4.1
		c-1.5-1.1-2.6-1.6-3.5-1.6c-1.5,0-2.2,1.4-2.2,3.3c0,1.5,0.4,3.3,1.2,5.1c2.3,5.1,5.9,7.2,10.2,7.2
		C100.8,49.3,103.9,48.4,106.9,46.7z"/>
	<path class="st0" d="M111.5,45.9c0-1,0.1-1.9,0.3-3c1-5.2,2.9-10.9,2.9-16.6c0-4.2-1.1-8.4-4.3-12.3c1.7-0.4,3.3-0.5,4.8-0.5
		c6.7,0,10.6,3.8,10.6,8.5c0,2.4-1,4.9-3.1,7.4c-5.6,6.5-7.7,11.8-7.7,15.8c0,5.8,4.5,8.8,9.2,8.8c3,0,6.1-1.2,8.2-3.6
		c2.1-2.4,2.9-7.1,2.9-12.3c0-9.5-2.7-20.9-5.6-24.1c2,0.4,4.4,0.5,6.8,0.5c2.8,0,5.5-0.2,7.1-0.5c0,0.1-0.6,14.9-0.6,27.5
		c0,8.3,0.3,15.7,1.2,17.1c-1.6-0.8-3-1.1-4.3-1.1c-3.4,0-6.1,2.1-9.8,2.6c-0.9,0.2-1.8,0.2-2.6,0.2
		C119.5,60.2,111.5,54.7,111.5,45.9z"/>
	<path class="st0" d="M165.8,42.7l0.1-1.8c-3.9,4.4-6.9,9-6.9,15.3c0,1.2,0.1,2.5,0.3,3.8c-2.2,0-4.4,0-6.6,0H146
		c1.8-3,2.5-11.5,2.5-20.5c0-10.7-1-22-2.3-25.8c1.6,0.1,3.1,0.2,4.6,0.2c4.7,0,9.2-0.5,13.9-0.5c5.7,0,14.5,2.5,14.5,8.8
		c0,1.6-0.5,3.3-1.8,5.4c-2.6,4-6,7.4-9.2,10.7c0.3,8.1,6.3,15.6,14.1,19.6c-2.6-3.2-4.2-7.3-4.2-11.2c0-2.7,0.7-5.3,2.2-7.7
		c-0.2-1.2-0.4-2.5-0.4-3.8c0-1.1,0.1-2.1,0.2-3.1c1.1-7.4,7-10.3,7-16.2c0-1.2-0.3-2.5-0.8-4c1.5,1.2,9.2,2.9,15.5,2.9
		c0.9,0,1.8,0,2.7-0.1c0,0,4.8-0.3,7.4-2.8c0.9,1.2,1.2,2.6,1.2,4c0,4.3-3.9,8.6-10.2,8.6c-2.3,0-4.9-0.6-7.7-2
		c-1.9-1-3.6-1.6-5-1.6c-2.2,0-3.7,2-3.7,6.4c0,1.9,0.4,4.1,1,6.3c7.4-2.4,17.9,0,21-6.7c0.9,2.3,1.4,4.1,1.4,5.7
		c0,3.8-2.6,5.5-6.7,5.5c-2.2,0-4.8-0.5-7.7-1.5c-2.5-0.9-4.8-1.2-6.6-1.2h-0.7c2.4,5.7,7.1,11,14.2,11c2.6,0,5.5-0.7,8.8-2.4
		c0.3,1,0.4,2,0.4,2.9c0,6.1-5.6,9.5-11.6,9.5c-1.2,0-2.5-0.2-3.8-0.4c-8.1-1.9-13.4-7.9-15.4-14.8c-0.3,1-0.4,2-0.4,3.1
		c0,7.8,6.5,17.9,15.7,17.9c4.6,0,9.7-2.5,15.1-9v1c0,12.5-7.6,17.9-16.6,17.9C181.7,72,165.8,60.6,165.8,42.7z M168.2,21.4
		c0-4.7-1.4-6.6-3.2-6.6c-2,0-4.4,2.5-5.8,6.5c-1.4,4.2-1.8,10.1-1.8,16.1c0,4.7,0.3,9.5,0.5,13.6C160.2,37.8,168.1,37.7,168.2,21.4
		z"/>
</g>
<text transform="matrix(1 0 0 1 65.9629 78.2108)" class="st1 st2 st3">mTL</text>
</svg>
